<?xml version="1.0" encoding="UTF-8" standalone="no"?>
<!DOCTYPE svg PUBLIC "-//W3C//DTD SVG 1.1//EN" "http://www.w3.org/Graphics/SVG/1.1/DTD/svg11.dtd">
<svg width="100%" height="100%" viewBox="0 0 128 128" version="1.1" xmlns="http://www.w3.org/2000/svg" xmlns:xlink="http://www.w3.org/1999/xlink" xml:space="preserve" xmlns:serif="http://www.serif.com/" style="fill-rule:evenodd;clip-rule:evenodd;stroke-linejoin:round;stroke-miterlimit:2;">
    <g transform="matrix(0.272871,0,0,0.272871,64,64)">
        <g transform="matrix(1,0,0,1,-210.416667,-183.333333)">
            <clipPath id="_clip1">
                <rect x="0" y="0" width="420.833" height="366.667"/>
            </clipPath>
            <g clip-path="url(#_clip1)">
                <g transform="matrix(4.166667,0,0,4.166667,0,0)">
                    <path d="M100.48,69.382L83.807,86.802C83.444,87.18 83.006,87.482 82.519,87.688C82.031,87.894 81.505,88 80.974,88L1.936,88C1.558,88 1.19,87.893 0.874,87.691C0.559,87.49 0.311,87.203 0.16,86.866C0.01,86.529 -0.036,86.157 0.028,85.794C0.092,85.432 0.263,85.096 0.52,84.828L17.206,67.408C17.568,67.031 18.005,66.73 18.49,66.523C18.976,66.317 19.5,66.21 20.03,66.21L99.064,66.21C99.442,66.21 99.81,66.317 100.126,66.518C100.441,66.72 100.689,67.007 100.84,67.344C100.99,67.681 101.036,68.053 100.972,68.415C100.908,68.777 100.737,69.113 100.48,69.382ZM83.807,34.303C83.444,33.925 83.006,33.623 82.519,33.417C82.031,33.211 81.505,33.105 80.974,33.105L1.936,33.105C1.558,33.105 1.19,33.212 0.874,33.414C0.559,33.615 0.311,33.902 0.16,34.239C0.01,34.576 -0.036,34.948 0.028,35.31C0.092,35.672 0.263,36.008 0.52,36.277L17.206,53.697C17.568,54.074 18.005,54.375 18.49,54.581C18.976,54.788 19.5,54.894 20.03,54.895L99.064,54.895C99.442,54.895 99.81,54.788 100.126,54.586C100.441,54.385 100.689,54.098 100.84,53.761C100.99,53.424 101.036,53.052 100.972,52.69C100.908,52.328 100.737,51.992 100.48,51.723L83.807,34.303ZM1.936,21.791L80.974,21.791C81.505,21.791 82.031,21.684 82.519,21.478C83.006,21.272 83.444,20.97 83.807,20.592L100.48,3.172C100.737,2.904 100.908,2.568 100.972,2.205C101.036,1.843 100.99,1.471 100.84,1.134C100.689,0.797 100.441,0.51 100.126,0.309C99.81,0.107 99.442,0 99.064,0L20.03,0C19.5,0.001 18.976,0.108 18.49,0.314C18.005,0.52 17.568,0.821 17.206,1.198L0.525,18.618C0.268,18.887 0.097,19.222 0.033,19.584C-0.032,19.946 0.014,20.318 0.164,20.654C0.314,20.991 0.561,21.278 0.876,21.48C1.191,21.682 1.559,21.79 1.936,21.791Z" style="fill:url(#_Linear2);fill-rule:nonzero;"/>
                </g>
            </g>
        </g>
    </g>
    <defs>
        <linearGradient id="_Linear2" x1="0" y1="0" x2="1" y2="0" gradientUnits="userSpaceOnUse" gradientTransform="matrix(80.46772,-93.11352,93.11352,80.46772,8.52558,90.0973)"><stop offset="0" style="stop-color:rgb(153,69,255);stop-opacity:1"/><stop offset="0.08" style="stop-color:rgb(153,69,255);stop-opacity:1"/><stop offset="0.3" style="stop-color:rgb(135,82,243);stop-opacity:1"/><stop offset="0.5" style="stop-color:rgb(84,151,213);stop-opacity:1"/><stop offset="0.6" style="stop-color:rgb(67,180,202);stop-opacity:1"/><stop offset="0.72" style="stop-color:rgb(40,224,185);stop-opacity:1"/><stop offset="0.97" style="stop-color:rgb(25,251,155);stop-opacity:1"/><stop offset="1" style="stop-color:rgb(25,251,155);stop-opacity:1"/></linearGradient>
    </defs>
</svg>
